#!OML:ASF H:\ManfredObstacles\Project 1\Capture day 2\Session 1\male.ASF
:FULLY-SPECIFIED
:DEGREES
540
root 1.81665 9.08759 -8.18934 -165.898 6.42541 -183.673
lowerback 35.9671 0.472106 -8.73051
upperback 15.208 3.09562 -3.79969
thorax -1.03544 3.33942 -0.438502
lowerneck -31.5928 0.535743 1.86447
upperneck 26.0064 -1.14398 2.15689
head 14.1568 -0.027742 0.318756
rclavicle -2.18663e-014 3.85642e-014
rhumerus 10.2321 2.11555 -85.9931
rradius 32.5025
rwrist 32.4357
rhand -12.3447 -11.1455
rfingers 7.12502
rthumb 13.7248 -40.6729
lclavicle -2.18663e-014 3.85642e-014
lhumerus 25.2159 4.56739 78.4984
lradius 18.087
lwrist -56.6549
lhand 1.06852 3.58619
lfingers 7.12502
lthumb 26.6134 31.7358
rfemur -62.9236 -4.39321 27.8605
rtibia 135.675
rfoot -32.2954 -31.4046
rtoes -33.5242
lfemur -99.4026 4.9568 -30.074
ltibia 122.498
lfoot -7.65943 31.845
ltoes -13.9679
541
root 1.79844 9.19681 -8.32215 -165.314 6.47516 -183.571
lowerback 35.4512 0.500291 -8.7428
upperback 15 3.00777 -3.85322
thorax -1.09155 3.24579 -0.443003
lowerneck -31.6681 0.574457 1.96807
upperneck 25.9313 -1.14404 2.18043
head 14.1392 -0.0128511 0.31141
rclavicle -7.95139e-015 1.0138e-014
rhumerus 9.53114 2.96738 -85.5917
rradius 32.9967
rwrist 32.5351
rhand -12.288 -10.8647
rfingers 7.12502
rthumb 13.7795 -40.3884
lclavicle -7.95139e-015 1.0138e-014
lhumerus 24.8916 4.9461 78.585
lradius 17.8116
lwrist -56.9143
lhand 1.85713 3.09903
lfingers 7.12502
lthumb 27.3679 31.1319
rfemur -62.2615 -4.07062 27.5594
rtibia 134.525
rfoot -31.8483 -31.379
rtoes -33.4251
lfemur -98.5418 4.80853 -29.9735
ltibia 122.052
lfoot -8.02292 32.4094
ltoes -14.433
542
root 1.78152 9.30911 -8.45947 -164.739 6.4606 -183.485
lowerback 34.9347 0.503479 -8.73635
upperback 14.7871 2.89605 -3.89831
thorax -1.15001 3.14186 -0.441246
lowerneck -31.7113 0.612963 2.06777
upperneck 25.8404 -1.14273 2.20817
head 14.1088 0.00219692 0.306464
rclavicle 2.5842e-014 4.17448e-015
rhumerus 8.77104 3.84548 -85.2049
rradius 33.529
rwrist 32.8959
rhand -12.4041 -10.5696
rfingers 7.12502
rthumb 13.6676 -40.1008
lclavicle 2.5842e-014 4.17448e-015
lhumerus 24.4706 5.09866 78.5637
lradius 17.6543
lwrist -57.1817
lhand 2.45878 2.75632
lfingers 7.12502
lthumb 27.9433 30.6969
rfemur -61.5676 -3.84915 27.2336
rtibia 133.328
rfoot -31.4015 -31.2871
rtoes -33.4067
lfemur -97.6359 4.61507 -29.87
ltibia 121.566
lfoot -8.36095 32.9086
ltoes -14.9989
543
root 1.76579 9.4241 -8.60105 -164.178 6.38826 -183.419
lowerback 34.4204 0.488465 -8.71248
upperback 14.5721 2.77009 -3.9342
thorax -1.2086 3.0327 -0.43501
lowerneck -31.7607 0.646899 2.17208
upperneck 25.7678 -1.14848 2.22576
head 14.0873 0.0131934 0.295248
rclavicle -3.97569e-015 2.60408e-014
rhumerus 7.95409 4.72294 -84.8259
rradius 34.1035
rwrist 33.4094
rhand -12.6474 -10.2616
rfingers 7.12502
rthumb 13.4331 -39.8084
lclavicle -3.97569e-015 2.60408e-014
lhumerus 23.9731 4.87764 78.3616
lradius 17.6121
lwrist -57.2817
lhand 2.86037 2.59031
lfingers 7.12502
lthumb 28.3271 30.4678
rfemur -60.8441 -3.72416 26.8829
rtibia 132.091
rfoot -30.9258 -31.1445
rtoes -33.4722
lfemur -96.6803 4.38426 -29.7693
ltibia 121.036
lfoot -8.63005 33.3503
ltoes -15.6853
544
root 1.75133 9.54199 -8.74651 -163.642 6.27375 -183.367
lowerback 33.9205 0.464189 -8.67232
upperback 14.3571 2.64121 -3.9602
thorax -1.26985 2.92436 -0.427237
lowerneck -31.7984 0.673057 2.25602
upperneck 25.7163 -1.16493 2.26478
head 14.073 0.0204261 0.293831
rclavicle -1.27222e-014 -7.95139e-016
rhumerus 7.07872 5.58044 -84.4639
rradius 34.7332
rwrist 33.9191
rhand -12.9698 -9.96885
rfingers 7.12502
rthumb 13.1223 -39.536
lclavicle -1.27222e-014 -7.95139e-016
lhumerus 23.4085 4.25907 77.9891
lradius 17.7011
lwrist -57.1428
lhand 3.0678 2.60565
lfingers 7.12502
lthumb 28.5253 30.45
rfemur -60.0872 -3.65607 26.5201
rtibia 130.812
rfoot -30.3792 -30.9294
rtoes -33.6126
lfemur -95.661 4.15171 -29.6728
ltibia 120.462
lfoot -8.80554 33.7364
ltoes -16.4845
545
root 1.73819 9.66236 -8.89503 -163.115 6.11647 -183.329
lowerback 33.4093 0.432135 -8.62445
upperback 14.1488 2.51095 -3.96693
thorax -1.31765 2.81555 -0.402519
lowerneck -31.8674 0.686857 2.32151
upperneck 25.6955 -1.18853 2.29297
head 14.0779 0.0217495 0.28986
rclavicle -2.94201e-014 -5.06901e-014
rhumerus 6.15666 6.42503 -84.1029
rradius 35.4342
rwrist 34.2893
rhand -13.2973 -9.70051
rfingers 7.12502
rthumb 12.8066 -39.2877
lclavicle -2.94201e-014 -5.06901e-014
lhumerus 22.7948 3.17139 77.4307
lradius 17.9235
lwrist -56.5727
lhand 3.08011 2.82095
lfingers 7.12502
lthumb 28.5371 30.6634
rfemur -59.3194 -3.63611 26.1514
rtibia 129.499
rfoot -29.7152 -30.6456
rtoes -33.6406
lfemur -94.604 3.91319 -29.5837
ltibia 119.843
lfoot -8.91884 34.0677
ltoes -17.3378
